<?xml version="1.0" encoding="utf-8"?>
<!-- Generator: Adobe Illustrator 24.2.0, SVG Export Plug-In . SVG Version: 6.00 Build 0)  -->
<svg version="1.1" xmlns="http://www.w3.org/2000/svg" xmlns:xlink="http://www.w3.org/1999/xlink" x="0px" y="0px"
	 viewBox="0 0 109.62 100.4" style="enable-background:new 0 0 109.62 100.4;" xml:space="preserve">
<style type="text/css">
	.st0{fill-rule:evenodd;clip-rule:evenodd;fill:#ED1C2E;}
	.st1{fill-rule:evenodd;clip-rule:evenodd;fill:#FDB927;}
	.st2{fill-rule:evenodd;clip-rule:evenodd;fill:#ED1C2E;stroke:#ED1C2E;stroke-width:0.4187;stroke-miterlimit:10;}
	.st3{fill-rule:evenodd;clip-rule:evenodd;fill:#FFFFFF;}
	.st4{fill-rule:evenodd;clip-rule:evenodd;fill:#FFFFFF;stroke:#ED1C2E;stroke-width:0.216;stroke-miterlimit:10;}
	.st5{fill-rule:evenodd;clip-rule:evenodd;fill:#ED1C2E;stroke:#ED1C2E;stroke-width:0.216;stroke-miterlimit:10;}
	.st6{fill-rule:evenodd;clip-rule:evenodd;fill:#ED1C2E;stroke:#FFFFFF;stroke-width:0.216;stroke-miterlimit:10;}
	.st7{fill-rule:evenodd;clip-rule:evenodd;fill:#FDB927;stroke:#FDB927;stroke-width:0.216;stroke-miterlimit:10;}
</style>
<g id="Layer_1">
</g>
<g id="_x32_67271300314276356_1">
</g>
<g id="_x32_65245275272305251305351">
</g>
<g id="_x32_76310263273">
</g>
<g id="Page_1">
	<g>
		<g>
			<path class="st0" d="M82.37,60.08c0-8.42-4.39-48.31-10.51-48.6c-2.23-0.22-3.38,1.87-4.1,3.74c-4.25,10.3-7.27,33.55-8.5,44.78
				c0,0-11.88,0-11.81,0c0-0.58-0.14-0.94-0.14-1.44l-0.86-10.15c-0.58-4.75-1.08-9.5-1.94-14.04l-1.58-8.78l-1.01-4.03
				c-1.01-3.24-1.73-7.06-4.03-9.29c-0.5-0.5-1.58-0.79-2.45-0.43c-1.51,0.94-2.52,2.95-3.17,4.9c-2.95,9-4.61,18.58-5.83,28.3
				L25.2,55.19l-0.36,4.82c0,0-10.22,0-10.3,0c1.01-4.68,3.38-52.78,20.52-54.79c2.23-0.22,3.53,1.87,5.11,2.74
				c9,4.68,13.1,24.12,13.1,24.19c2.66-9.29,5.62-20.3,12.82-25.42c1.87-1.3,5.62-0.5,8.14,0.58c15.12,5.69,18.07,52.78,18,52.78
				C92.81,60.08,82.22,60.01,82.37,60.08z"/>
			<path class="st1" d="M81.07,60.08c0-8.42-4.46-48.31-10.66-48.6c-2.16-0.22-3.31,1.87-3.96,3.74c-4.25,10.3-7.34,33.55-8.5,44.78
				c-0.07,0-11.88,0-11.95,0c0.07-0.58-0.07-0.94,0-1.44l-0.94-10.15c-0.5-4.75-1.08-9.5-1.87-14.04l-1.58-8.78l-1.01-4.03
				c-1.01-3.24-1.8-7.06-4.03-9.29c-0.58-0.5-1.66-0.79-2.45-0.43c-1.58,0.94-2.59,2.95-3.17,4.9c-3.02,9-4.68,18.58-5.83,28.3
				L23.9,55.19l-0.43,4.82c0,0-10.22,0-10.3,0c1.01-4.68,3.38-52.78,20.52-54.79c2.23-0.22,3.6,0.29,5.04,1.08
				c9.14,4.75,13.25,25.78,13.25,25.85c2.59-9.29,5.54-20.3,12.82-25.42c1.8-1.3,5.54-2.09,7.99-1.08
				c15.19,5.76,18.14,54.43,18.14,54.43C91.44,60.08,80.85,60.01,81.07,60.08z"/>
			<path class="st2" d="M99.65,59.87c-0.07,0-5.62,34.34-5.9,35.21c-0.29,0-83.66-0.07-83.59,0L4.82,59.87H99.65z"/>
			<path class="st3" d="M6.62,61.52c1.22,0,8.14,0.07,8.14,0c1.58-14.11,3.96-46.51,16.49-54.22c1.51-0.86,3.67-1.08,4.39-0.72
				c-0.29,0.36-0.43,0.94-0.79,1.58C34.56,8.1,34.2,8.1,33.91,8.24c-6.48,1.87-12.67,16.2-16.42,57.53
				c-0.79,1.01-1.66,2.74-3.17,2.81c-0.14-2.02,0.29-4.54,0.22-5.76c-1.22,0-6.34,0-6.41,0l4.46,28.8c-0.22,0.36-1.3,1.3-1.3,1.3
				C10.73,90.18,6.62,61.52,6.62,61.52z"/>
			<path class="st3" d="M82.8,62.82H57.89c-0.07-0.5,0-1.22,0-1.3c11.09,0.07,22.9,0,24.84,0c-0.86-8.06-2.02-28.08-5.76-41.04
				c-1.94-6.62-3.74-11.45-8.06-10.51c0.58-1.08,0.65-1.37,1.01-1.8c14.18-0.72,16.78,57.53,16.78,57.6c0-0.07-2.52,2.88-3.31,3.17
				C83.3,68.08,82.8,62.82,82.8,62.82z"/>
			<path class="st3" d="M47.88,62.82H23.33c0-0.5,0.07-1.22,0-1.3h24.34c-0.22-11.38-3.53-38.74-8.14-47.45
				c-1.08-2.16-2.66-4.46-5.54-4.1c0.36-0.86,0.58-1.3,0.86-1.8c2.16,0.29,2.95,0.94,4.03,1.8c6.26,5.04,11.09,27.65,13.1,51.84
				c-1.66,1.66-2.23,2.38-3.89,4.18C48.02,64.4,47.88,62.82,47.88,62.82z"/>
			<path class="st3" d="M91.08,62.82c-0.07-0.58-0.5-0.86-0.43-1.3c0.58,0,4.82,0,6.48,0l-1.08,1.3
				C94.39,62.89,92.59,62.82,91.08,62.82z"/>
			<path class="st3" d="M52.2,41.36c1.15-11.81,7.99-33.98,16.7-34.85c0.5,0,1.37,0,1.73,0.22c-0.07,0.29-0.58,0.94-0.86,1.44
				C60.19,8.1,54,43.45,52.56,55.62C52.49,55.62,52.41,50.58,52.2,41.36z"/>
			<path class="st4" d="M84.67,81.54c-0.94-0.86-0.79-2.23-0.79-2.45c1.01,0.07,1.37,0.07,2.3,0c0.07,0.43,0.07,0.86,0.72,1.15
				c0.65,0.07,1.44-0.14,1.08-0.94c-0.22-0.72-3.02-0.58-3.74-2.16c-0.29-0.65-0.07-1.37,0.29-1.94c1.08-1.22,3.02-1.22,4.46-0.72
				c1.44,0.43,1.44,1.58,1.51,2.16h-2.38c-0.07-0.36-0.14-0.86-0.65-0.86c-0.43-0.14-1.08,0.5-0.43,1.08
				c0.36,0.36,2.88,0.36,3.6,1.73c0.36,0.94,0.22,1.73-0.36,2.52C89.49,82.26,85.82,82.4,84.67,81.54z"/>
			<path class="st4" d="M27.29,80.1c-0.79-1.37-0.79-3.6,0.29-4.9c0.86-1.08,2.59-1.58,4.1-1.08c1.01,0.22,1.73,0.79,2.23,1.73
				c0.07,0.58,0.07,0.58,0.07,1.22c0.07,0-2.3-0.07-2.52,0c0.07-0.43,0-0.65-0.22-0.79c-0.14-0.43-1.3-0.58-1.73,0.14
				c-0.29,0.86-0.29,1.15-0.07,2.38c0.14,1.3,1.66,1.08,1.8,0.5c0.29-0.36,0.29-0.65,0.36-0.65h2.52c-0.14,0.86-0.07,0.86-0.43,1.87
				c-1.15,1.22-3.02,1.37-4.46,1.01C28.37,81.4,27.65,80.82,27.29,80.1z"/>
			<path class="st4" d="M70.63,73.19c0.94,0,1.66-0.07,2.52,0v8.42h-2.52V73.19z"/>
			<path class="st4" d="M58.82,77.15c-0.14-0.72-0.94-0.86-1.51-0.72c-0.29,0-0.58,0.43-0.79,0.72c0.07,1.44,0.07,4.32,0,4.46
				c-0.58,0.07-1.66,0-2.45,0v-7.13h2.23c0.07,0.22,0.29,0.79,0.22,0.86c0.65-0.65,1.37-1.01,2.3-1.01c0.79,0,1.44,0.22,1.94,0.79
				c1.01,0.94,0.58,2.88,0.58,6.48h-2.52V77.15z"/>
			<path class="st4" d="M23.76,81.61c-0.14-1.44-0.5-4.61-0.5-4.54c0-0.07-1.58,4.61-1.66,4.54h-2.23
				c-0.22-0.14-1.37-4.39-1.44-4.54l-0.65,4.54c-0.79,0.07-1.8,0-2.74,0l1.51-8.42h3.31c0,0,1.37,4.25,1.3,4.1
				c0.07,0.14,1.22-4.1,1.15-4.1h3.38l1.3,8.42H23.76z"/>
			<path class="st4" d="M82.37,75.56c0.22-1.44,0.36-2.38,0.43-2.38h1.73c-0.22,0.79-0.43,1.51-0.65,2.38H82.37z"/>
			<path class="st4" d="M35.21,73.19c0.72,0,2.88,0,3.46,0c0.14,0.22,4.03-0.58,5.54,2.02c0.58,1.22,0.43,3.53-0.36,4.68
				c-1.15,1.44-2.74,1.73-4.46,1.73c-0.14,0.07-3.24,0.07-4.18,0V73.19z"/>
			<path class="st4" d="M45.57,79.88c-0.43-1.37-0.65-3.1,0.22-4.32c1.08-1.44,3.1-1.8,4.82-1.3c1.15,0.29,2.3,1.44,2.45,2.66
				c0.29,1.3,0.07,2.66-0.72,3.74c-1.22,1.08-3.02,1.22-4.61,0.86C46.87,81.25,46.01,80.68,45.57,79.88z"/>
			<path class="st4" d="M63.07,81.32c-0.43-0.58-0.86-1.08-0.79-1.87c0.07-0.72,0.29-1.58,1.08-1.94c0.94-0.65,3.1-0.29,3.38-0.65
				c0.29-0.94-0.58-1.01-0.94-1.01c-0.58,0-0.94,0.22-1.01,0.58c-0.5,0-1.3,0-2.09,0c-0.07-0.58,0.22-0.94,0.43-1.3
				c0.94-1.01,4.25-1.22,5.76,0c0.94,0.72,0.14,3.6,0.58,6.48h-2.3c-0.43-0.72-0.22-0.72-0.22-0.72
				C66.17,82.04,64.08,81.97,63.07,81.32z"/>
			<path class="st4" d="M75.02,81.11c-1.08-1.3-1.3-3.1-0.79-4.68c0.29-0.79,1.01-1.58,1.87-1.94c0.94-0.36,2.16-0.14,3.02,0.65
				v-1.94c0.86-0.07,1.73,0,2.45,0v8.42h-2.23l-0.22-0.65C78.12,81.9,76.39,82.26,75.02,81.11z"/>
			<path class="st5" d="M38.01,75.13c1.37,0,1.94,0,3.02,0.5c1.08,1.01,0.86,2.38,0,3.24c-1.08,0.65-1.44,0.65-3.02,0.58
				C38.09,79.52,38.01,75.13,38.01,75.13z"/>
			<path class="st5" d="M47.88,77.8c0-1.08,0.22-1.94,1.37-1.94c1.15,0,1.37,0.86,1.44,1.94c-0.07,1.08-0.29,1.94-1.44,1.94
				C48.24,79.74,47.88,78.88,47.88,77.8z"/>
			<path class="st5" d="M64.87,79.45c-0.07-0.5,0.29-0.86,0.58-1.08c0.94-0.22,0.94,0,1.3-0.14c0.14,0.43,0.07,1.01-0.22,1.3
				C66.02,80.03,65.23,80.1,64.87,79.45z"/>
			<path class="st6" d="M75.96,78.01c0.07-1.08,0.43-1.94,1.66-1.94c1.08,0,1.51,0.86,1.51,1.94c0,1.01-0.65,1.73-1.51,1.73
				C76.61,79.74,76.03,79.02,75.96,78.01z"/>
			<path class="st7" d="M83.37,69.01c2.45,0,8.06,0,7.99,0l-0.5-10.08l-4.68-1.51l0.5,8.21C85.89,66.35,84.6,67.57,83.37,69.01z"/>
			<path class="st7" d="M48.09,65.99c2.23,0,9.72,0,9.79,0c-0.07,0,0-3.89,0.22-6.34c0.14-2.95,0.79-7.56,0.72-7.56
				c0.07,0-7.2,4.54-7.27,4.97c0.07,1.3,0.07,2.23,0.22,4.32C50.83,62.39,50.04,63.32,48.09,65.99z"/>
			<path class="st1" d="M14.33,68.58c2.74,0,8.78,0,8.78,0L23.47,59l-4.54-4.9c-0.72,2.66-1.37,11.66-1.44,11.66
				C15.77,67.36,15.41,67.5,14.33,68.58z"/>
			<path class="st0" d="M101.66,89.1h0.07c1.08,0,1.66,0.43,1.66,1.37c0,0.79-0.5,1.15-1.22,1.22l1.37,2.09h-0.86l-1.01-1.58v-1.08
				c0.58,0,1.01-0.07,1.01-0.72c0-0.58-0.5-0.65-1.01-0.65V89.1L101.66,89.1z M101.66,95.58c2.16-0.07,4.03-1.73,4.03-4.25
				c0-2.45-1.87-4.1-4.03-4.18v0.72c1.73,0.07,3.1,1.51,3.1,3.46c0,2.02-1.37,3.46-3.1,3.53V95.58z M100.73,93.78h-0.79V89.1h1.73
				v0.65l0,0h-0.94v1.37h0.86h0.07v1.08l-0.22-0.43h-0.72V93.78L100.73,93.78z M101.66,87.16c0,0-0.07,0-0.14,0
				c-2.23,0-4.1,1.66-4.1,4.18c0,2.45,1.73,4.25,4.1,4.25c0.07,0,0.14,0,0.14,0v-0.72c0,0-0.07,0-0.14,0
				c-2.02,0-3.24-1.58-3.24-3.53c0-2.02,1.44-3.46,3.24-3.46c0.07,0,0.14,0,0.14,0V87.16z"/>
		</g>
	</g>
</g>
</svg>
